<?xml version="1.0" encoding="UTF-8" standalone="no"?>
<svg
   xmlns:dc="http://purl.org/dc/elements/1.1/"
   xmlns:cc="http://creativecommons.org/ns#"
   xmlns:rdf="http://www.w3.org/1999/02/22-rdf-syntax-ns#"
   xmlns:svg="http://www.w3.org/2000/svg"
   xmlns="http://www.w3.org/2000/svg"
   xmlns:sodipodi="http://sodipodi.sourceforge.net/DTD/sodipodi-0.dtd"
   xmlns:inkscape="http://www.inkscape.org/namespaces/inkscape"
   version="1.1"
   x="0px"
   y="0px"
   viewBox="0 0 688 688"
   enable-background="new 0 0 1000 1000"
   xml:space="preserve"
   id="svg883"
   sodipodi:docname="github-background.svg"
   width="688"
   height="688"
   inkscape:version="1.0.1 (3bc2e813f5, 2020-09-07)"><defs
   id="defs887" /><sodipodi:namedview
   pagecolor="#ffffff"
   bordercolor="#666666"
   borderopacity="1"
   objecttolerance="10"
   gridtolerance="10"
   guidetolerance="10"
   inkscape:pageopacity="0"
   inkscape:pageshadow="2"
   inkscape:window-width="1858"
   inkscape:window-height="1057"
   id="namedview885"
   showgrid="false"
   inkscape:zoom="0.31466252"
   inkscape:cx="-352.01255"
   inkscape:cy="913.26118"
   inkscape:window-x="54"
   inkscape:window-y="-8"
   inkscape:window-maximized="1"
   inkscape:current-layer="svg883" />
<metadata
   id="metadata875"> Svg Vector Icons : http://www.onlinewebfonts.com/icon <rdf:RDF><cc:Work
     rdf:about=""><dc:format>image/svg+xml</dc:format><dc:type
       rdf:resource="http://purl.org/dc/dcmitype/StillImage" /><dc:title></dc:title></cc:Work></rdf:RDF></metadata>
<g
   id="g881"
   transform="matrix(0.66924236,0,0,0.66924236,5.353363,11.039016)"
   style="opacity:0.04516129"><path
     d="M 981.1,306 C 965.8,230.2 925.5,162.4 867.6,115.1 809.6,67.8 736.7,43.2 662.3,45.8 590.5,48.3 521.2,76.5 467,125.2 c -54.2,48.6 -89.8,114.7 -100.3,186.1 -1.7,11.8 -3.3,23.5 -3.4,35.5 0,4.6 -0.1,13.1 3.1,21.3 4.2,10.8 12.6,17.2 24.3,18.6 28.7,3.5 33.3,-24.4 34.8,-33.5 1.3,-7.5 2.2,-15.1 3.2,-22.4 1.9,-15 3.7,-29.1 7.7,-42.5 C 470.2,173.5 586.8,95 701.8,109.5 832.1,125.9 922.2,237.5 926,387.2 v 0.4 c 3.3,54.4 -16.3,107.2 -53.8,144.7 -76,76 -160.2,170.8 -209,297.2 -15.2,39.3 -45.8,61.8 -84.1,61.8 0,0 0,0 0,0 -5.7,0 -11.6,-0.5 -17.6,-1.5 -52.2,-8.6 -85.4,-38.9 -98.7,-89.8 -1.4,-5.2 -2.4,-10.5 -3.6,-16.2 -1.1,-5.4 -2.2,-11 -3.6,-16.6 -2.1,-8.2 -7.3,-15.1 -14.4,-18.8 -6.5,-3.4 -13.8,-3.9 -20.6,-1.4 -9.9,3.7 -21.1,15.6 -22,27.4 -1,13.5 0.2,28.4 3.5,43 15.8,69.6 77.3,125.2 149.6,135.1 9.1,1.3 18.1,1.9 26.8,1.9 32.2,0 60.9,-8.6 85.1,-25.4 24.2,-16.9 43.3,-41.6 56.9,-73.5 40.8,-96.1 102.3,-183.3 193.5,-274.2 36.3,-36.2 59.9,-79.6 70.2,-129.1 8.7,-43.2 7.7,-92.4 -3.1,-146.2 z"
     id="path877" /><path
     d="m 403.1,697.1 c 0.9,0.2 1.7,0.3 2.7,0.4 h 0.4 c 1.1,0.1 2.1,0.2 3,0.2 h 104.2 c 2.8,0.6 5.9,1 9.2,1 7,0 13.9,-1.4 19.4,-2.6 l 1.9,-0.4 c 23.4,-4.8 42,-11.6 56.9,-20.8 45.9,-28.6 72.6,-78 71.3,-132 -1.4,-59.1 -34.3,-112.3 -88,-142.4 -4.7,-2.6 -9.5,-4.5 -14.2,-6.2 -14,-5.3 -17,-7.3 -17.2,-16.8 -1.6,-59.3 13.4,-97.5 48.7,-123.9 39.4,-29.4 83,-33.6 129.5,-12.4 45.9,20.9 69.3,58.1 71.6,113.9 v 0.4 c 0.4,9.9 1,24.9 11.4,34.2 5.9,5.3 13.6,7.6 22.8,6.9 27.3,-2 28.8,-27.7 29.4,-38.7 0.1,-1.5 0.2,-3 0.3,-4.5 3.8,-46 -13.5,-93.5 -47.6,-130.3 -37.3,-40.3 -89.5,-63.4 -143.2,-63.4 h -1.3 c -60.9,0.4 -117.6,30.5 -155.7,82.6 -38.5,52.6 -50.5,119.5 -32,179 8,25.6 27.5,30 43.3,33.6 l 0.4,0.1 c 51,11.6 75.9,40.6 76,88.7 0.1,47.8 -24.7,77 -75.8,89.3 -1.8,0.4 -4,0.8 -6.2,1.2 -0.6,0 -1.2,-0.1 -1.8,-0.1 H 435.7 L 393.8,411.8 c -1.6,-8.3 -6.3,-15.6 -13.3,-20.4 -5.5,-3.8 -12,-5.7 -18.6,-5.5 -14.5,0.1 -27,10 -30.5,24 l -66.9,267.3 -32.6,-99.4 c -2.6,-8.1 -8.3,-14.6 -15.9,-18.4 -4.6,-2.3 -9.8,-3.5 -14.9,-3.4 H 41.8 C 24.3,556 10,570.3 10,587.8 c 0,17.5 14.3,31.8 31.8,31.8 h 136.8 l 59.7,181.8 c 4.3,13.1 16.4,21.9 30.2,21.9 3.4,0 6.7,-0.5 9.9,-1.6 2.4,-0.8 4.7,-1.9 7,-3.3 0.3,-0.2 0.6,-0.3 0.8,-0.5 0.4,-0.3 0.8,-0.5 1.1,-0.8 0.5,-0.4 1,-0.8 1.5,-1.2 l 0.1,-0.1 c 0.1,-0.1 0.3,-0.2 0.4,-0.3 5,-4.3 8.5,-10 10.1,-16.3 l 58.6,-233.9 20,106.4 0.1,0.4 c 0.2,0.9 0.4,1.7 0.6,2.3 0,0.2 0.1,0.4 0.2,0.6 0.2,0.7 0.4,1.3 0.7,1.9 l 0.1,0.2 c 0.1,0.3 0.2,0.6 0.3,0.9 0.1,0.3 0.3,0.7 0.5,1 l 0.2,0.4 c 0.2,0.5 0.5,1 0.7,1.5 0.1,0.2 0.2,0.4 0.4,0.6 0.3,0.6 0.7,1.3 1.3,2.1 0.1,0.1 0.1,0.2 0.2,0.2 0.5,0.8 1.1,1.5 1.6,2.2 l 0.1,0.2 c 0.6,0.7 1.3,1.4 1.9,2.1 0.1,0.1 0.2,0.2 0.3,0.3 0.7,0.7 1.3,1.2 1.9,1.7 0.3,0.2 0.6,0.4 0.9,0.7 l 0.5,0.4 c 0.3,0.3 0.7,0.5 0.9,0.7 l 0.3,0.2 c 0.1,0.1 0.2,0.1 0.2,0.1 0.6,0.4 1.3,0.8 2,1.2 0.2,0.1 0.5,0.2 0.8,0.4 0.6,0.3 1.2,0.6 1.9,0.9 l 0.1,0.1 c 0.2,0.1 0.4,0.2 0.6,0.2 1.8,0.7 3.7,1.3 5.6,1.7 z"
     id="path879" /></g>
</svg>
